<svg width="60" height="60" viewBox="0 0 60 60" fill="none" xmlns="http://www.w3.org/2000/svg">
<rect opacity="0.1" width="60" height="60" rx="30" fill="#5B93FF"/>
<path d="M29.9995 28.6534C31.7521 28.6534 33.1728 27.2505 33.1728 25.5201C33.1728 23.7896 31.7521 22.3867 29.9995 22.3867C28.2469 22.3867 26.8262 23.7896 26.8262 25.5201C26.8262 27.2505 28.2469 28.6534 29.9995 28.6534Z" fill="#5B93FF"/>
<path d="M25.1864 25.8333H25.5064V25.5466C25.5083 24.713 25.7435 23.8966 26.1853 23.1897C26.6271 22.4828 27.2579 21.9137 28.0064 21.5466C27.7848 21.0363 27.4291 20.5956 26.9772 20.2712C26.5252 19.9468 25.9939 19.7509 25.4395 19.7042C24.8851 19.6576 24.3285 19.7619 23.8287 20.0062C23.3289 20.2505 22.9045 20.6256 22.6008 21.0917C22.297 21.5578 22.1252 22.0974 22.1035 22.6533C22.0819 23.2092 22.2111 23.7606 22.4777 24.249C22.7442 24.7373 23.138 25.1443 23.6173 25.4268C24.0965 25.7092 24.6434 25.8566 25.1997 25.8533L25.1864 25.8333ZM34.5064 25.52V25.8066H34.8264C35.3753 25.8011 35.9125 25.6477 36.3816 25.3626C36.8507 25.0775 37.2342 24.6712 37.4919 24.1865C37.7495 23.7018 37.8717 23.1566 37.8456 22.6083C37.8195 22.06 37.6461 21.5288 37.3435 21.0708C37.041 20.6127 36.6206 20.2447 36.1266 20.0054C35.6325 19.7662 35.0831 19.6645 34.5362 19.7112C33.9892 19.7578 33.465 19.9511 33.0186 20.2706C32.5722 20.5901 32.2202 21.024 31.9997 21.5266C32.7484 21.8922 33.3799 22.4599 33.8228 23.1656C34.2658 23.8713 34.5026 24.6868 34.5064 25.52ZM32.8597 28.9666C34.1852 29.229 35.4668 29.6779 36.6664 30.3C36.8354 30.3928 36.9884 30.5121 37.1197 30.6533H40.6664V28.3733C40.667 28.2859 40.6437 28.1999 40.5991 28.1247C40.5545 28.0495 40.4901 27.9879 40.413 27.9466C38.6851 27.0429 36.763 26.5738 34.813 26.58H34.373C34.142 27.5191 33.6106 28.3571 32.8597 28.9666ZM22.353 31.9466C22.3518 31.6109 22.4425 31.2812 22.6152 30.9933C22.788 30.7054 23.0362 30.4702 23.333 30.3133C24.5325 29.6912 25.8142 29.2423 27.1397 28.98C26.3924 28.3757 25.8614 27.5452 25.6264 26.6133H25.1864C23.2364 26.6071 21.3143 27.0762 19.5864 27.98C19.5093 28.0213 19.4449 28.0828 19.4003 28.158C19.3556 28.2332 19.3324 28.3192 19.333 28.4066V32.6666H22.353V31.9466ZM32.3064 35.7933H36.2797V36.7266H32.3064V35.7933Z" fill="#5B93FF"/>
<path d="M39.8732 32.1732H35.2932V31.5065C35.2932 31.3297 35.223 31.1602 35.0979 31.0351C34.9729 30.9101 34.8033 30.8399 34.6265 30.8399C34.4497 30.8399 34.2802 30.9101 34.1551 31.0351C34.0301 31.1602 33.9599 31.3297 33.9599 31.5065V32.1732H32.6665V30.2865C31.7894 30.1023 30.8961 30.0063 29.9999 29.9999C27.8957 29.9911 25.8216 30.4993 23.9599 31.4799C23.8769 31.5229 23.8075 31.588 23.7593 31.668C23.7111 31.748 23.6859 31.8398 23.6865 31.9332V35.6732H28.4265V39.7332C28.4265 39.91 28.4968 40.0796 28.6218 40.2046C28.7468 40.3296 28.9164 40.3999 29.0932 40.3999H39.8732C40.05 40.3999 40.2196 40.3296 40.3446 40.2046C40.4696 40.0796 40.5399 39.91 40.5399 39.7332V32.8399C40.5399 32.6631 40.4696 32.4935 40.3446 32.3685C40.2196 32.2434 40.05 32.1732 39.8732 32.1732ZM39.2065 39.0799H29.7599V33.5065H33.9599V34.1132C33.9599 34.29 34.0301 34.4596 34.1551 34.5846C34.2802 34.7096 34.4497 34.7799 34.6265 34.7799C34.8033 34.7799 34.9729 34.7096 35.0979 34.5846C35.223 34.4596 35.2932 34.29 35.2932 34.1132V33.5065H39.2065V39.0799Z" fill="#5B93FF"/>
</svg>
