<svg width="18" height="18" viewBox="0 0 18 18" fill="none" xmlns="http://www.w3.org/2000/svg">
<rect width="18" height="18" fill="#F5F5F5"/>
<g clip-path="url(#clip0_25_678)">
<rect width="1440" height="1016" transform="translate(-174 -955)" fill="#FAFAFB"/>
<rect x="-174" y="-955" width="218" height="1016" fill="white"/>
<g opacity="0.4">
<path fill-rule="evenodd" clip-rule="evenodd" d="M7.24547 8.35841C6.88089 8.35841 6.59261 8.64175 6.59261 9.00008C6.59261 9.35008 6.88089 9.64175 7.24547 9.64175H12.3327V13.6251C12.3327 15.6667 10.6454 17.3334 8.55967 17.3334H4.43055C2.35327 17.3334 0.666016 15.6751 0.666016 13.6334V4.37508C0.666016 2.32508 2.36175 0.666748 4.43903 0.666748H8.57663C10.6454 0.666748 12.3327 2.32508 12.3327 4.36675V8.35841H7.24547ZM15.3579 6.11692L17.7912 8.54192C17.9162 8.66692 17.9829 8.82525 17.9829 9.00025C17.9829 9.16692 17.9162 9.33359 17.7912 9.45025L15.3579 11.8753C15.2329 12.0003 15.0662 12.0669 14.9079 12.0669C14.7412 12.0669 14.5746 12.0003 14.4496 11.8753C14.1995 11.6253 14.1995 11.2169 14.4496 10.9669L15.7829 9.64192H12.3329V8.35859H15.7829L14.4496 7.03359C14.1995 6.78359 14.1995 6.37525 14.4496 6.12525C14.6996 5.86692 15.1079 5.86692 15.3579 6.11692Z" fill="#030229"/>
</g>
</g>
<defs>
<clipPath id="clip0_25_678">
<rect width="1440" height="1016" fill="white" transform="translate(-174 -955)"/>
</clipPath>
</defs>
</svg>
