<svg width="60" height="60" viewBox="0 0 60 60" fill="none" xmlns="http://www.w3.org/2000/svg">
<rect opacity="0.1" width="60" height="60" rx="30" fill="#FF8F6B"/>
<path d="M24.0161 22.502C23.6249 22.5017 23.2375 22.5784 22.876 22.7279C22.5145 22.8774 22.1861 23.0968 21.9094 23.3734C21.6328 23.65 21.4135 23.9785 21.264 24.34C21.1145 24.7014 21.0377 25.0889 21.0381 25.48C21.0381 27.713 24.0161 31.01 24.0161 31.01C24.0161 31.01 26.9941 27.713 26.9941 25.48C26.9945 25.0889 26.9177 24.7014 26.7682 24.34C26.6187 23.9785 26.3993 23.65 26.1227 23.3734C25.8461 23.0968 25.5177 22.8774 25.1562 22.7279C24.7947 22.5784 24.4073 22.5017 24.0161 22.502ZM24.0161 26.543C23.8058 26.543 23.6003 26.4807 23.4255 26.3639C23.2507 26.2471 23.1145 26.0811 23.034 25.8868C22.9535 25.6926 22.9325 25.4789 22.9735 25.2727C23.0145 25.0665 23.1158 24.8771 23.2644 24.7284C23.4131 24.5797 23.6025 24.4785 23.8087 24.4375C24.0149 24.3965 24.2286 24.4175 24.4229 24.498C24.6171 24.5784 24.7831 24.7147 24.8999 24.8895C25.0167 25.0643 25.0791 25.2698 25.0791 25.48C25.0788 25.7619 24.9667 26.0321 24.7674 26.2314C24.5682 26.4307 24.2979 26.5428 24.0161 26.543ZM39.0241 29.296V24.996C39.0171 24.5445 38.9484 24.096 38.8201 23.663C38.492 22.5184 37.7658 21.5285 36.7724 20.8719C35.779 20.2153 34.5838 19.9351 33.4021 20.0818C32.2204 20.2285 31.1299 20.7924 30.3272 21.672C29.5245 22.5515 29.0624 23.6889 29.0241 24.879V25.127L29.0141 25.997V35.949H29.0101V35.99C29.0101 36.5205 28.7994 37.0292 28.4243 37.4043C28.0492 37.7793 27.5405 37.99 27.0101 37.99C26.4797 37.99 25.9709 37.7793 25.5959 37.4043C25.2208 37.0292 25.0101 36.5205 25.0101 35.99C25.0101 35.978 25.0131 35.966 25.0141 35.953H25.0101V34.01H23.0101V36.01H23.0121C23.0128 37.0704 23.4346 38.087 24.1848 38.8363C24.9351 39.5856 25.9523 40.0062 27.0126 40.0055C28.0729 40.0049 29.0896 39.583 29.8389 38.8328C30.5882 38.0826 31.0088 37.0654 31.0081 36.005H31.0101V35.023H31.0151V26.997L31.0251 25.127V24.88C31.0536 24.0928 31.3905 23.3483 31.9631 22.8073C32.5357 22.2663 33.298 21.9721 34.0856 21.9883C34.8732 22.0044 35.6229 22.3296 36.1728 22.8936C36.7228 23.4577 37.0289 24.2153 37.0251 25.003V29.278C36.6421 29.4947 36.3414 29.8317 36.1695 30.2367C35.9975 30.6417 35.964 31.0921 36.0741 31.5181C36.1842 31.9441 36.4318 32.3219 36.7785 32.5928C37.1252 32.8638 37.5515 33.0128 37.9915 33.0168C38.4315 33.0207 38.8605 32.8794 39.212 32.6147C39.5635 32.3501 39.8178 31.9768 39.9356 31.5529C40.0533 31.1289 40.0279 30.678 39.8633 30.27C39.6987 29.8619 39.4031 29.5196 39.0241 29.296Z" fill="#FF8F6B"/>
</svg>
