<svg width="60" height="60" viewBox="0 0 60 60" fill="none" xmlns="http://www.w3.org/2000/svg">
<rect opacity="0.2" width="60" height="60" rx="30" fill="#FFD66B"/>
<path d="M35.75 20C36.612 20 37.4386 20.3424 38.0481 20.9519C38.6576 21.5614 39 22.388 39 23.25V34.75C39 35.612 38.6576 36.4386 38.0481 37.0481C37.4386 37.6576 36.612 38 35.75 38H24.25C23.388 38 22.5614 37.6576 21.9519 37.0481C21.3424 36.4386 21 35.612 21 34.75V23.25C21 22.388 21.3424 21.5614 21.9519 20.9519C22.5614 20.3424 23.388 20 24.25 20H35.75ZM29.75 23C29.5511 23 29.3603 23.079 29.2197 23.2197C29.079 23.3603 29 23.5511 29 23.75V29.75C29 30.164 29.336 30.5 29.75 30.5H34.248C34.4469 30.5 34.6377 30.421 34.7783 30.2803C34.919 30.1397 34.998 29.9489 34.998 29.75C34.998 29.5511 34.919 29.3603 34.7783 29.2197C34.6377 29.079 34.4469 29 34.248 29H30.5V23.75C30.5 23.5511 30.421 23.3603 30.2803 23.2197C30.1397 23.079 29.9489 23 29.75 23Z" fill="#FFC327"/>
</svg>
